<svg xmlns="http://www.w3.org/2000/svg" width="40" height="40" viewBox="0 0 40 40"><g transform="translate(0 0)"><path d="M6.875,32.5a6.487,6.487,0,0,0,2.734-.6v6.541H3.359a.781.781,0,0,0,0,1.563H36.641a.781.781,0,1,0,0-1.562h-6.25V31.9a6.487,6.487,0,0,0,2.734.6A6.851,6.851,0,0,0,40,25.859,6.837,6.837,0,0,0,35.055,19.5a5.5,5.5,0,0,0-2.8-4.294A7.838,7.838,0,0,0,32.5,10.6a.781.781,0,0,0-1.515.381,6.276,6.276,0,0,1-.2,3.681A5.472,5.472,0,0,0,24.163,19.5a7.1,7.1,0,0,0-3.382,2.221V15.337l4.477-2.132a.781.781,0,1,0-.672-1.411l-3.8,1.812V7.812a.781.781,0,0,0-1.562,0v3.45l-3.8-1.812a.781.781,0,1,0-.672,1.411l4.477,2.132v8.733A7.1,7.1,0,0,0,15.837,19.5a5.472,5.472,0,0,0-6.626-4.846,6.229,6.229,0,0,1,4.92-8.311.781.781,0,0,0,.65-.631,5.354,5.354,0,0,1,10.437,0,.781.781,0,0,0,.65.631,6.311,6.311,0,0,1,.945.22.781.781,0,1,0,.471-1.49c-.214-.068-.433-.127-.653-.176a6.937,6.937,0,0,0-13.265,0A7.791,7.791,0,0,0,7.749,15.211a5.5,5.5,0,0,0-2.8,4.294A6.837,6.837,0,0,0,0,25.859,6.851,6.851,0,0,0,6.875,32.5Zm4.3-.6a6.487,6.487,0,0,0,2.734.6,6.993,6.993,0,0,0,5.313-2.481v8.418H11.172Zm9.609,6.541V30.019A6.993,6.993,0,0,0,26.094,32.5a6.487,6.487,0,0,0,2.734-.6v6.541Zm4.306-17.554a.787.787,0,0,0,.616-.918,3.906,3.906,0,0,1,7.812,0,.787.787,0,0,0,.616.918,5.279,5.279,0,0,1,4.306,4.976,5.269,5.269,0,0,1-5.312,5.078,4.983,4.983,0,0,1-2.734-.823v-2.6l4.256-2.128a.781.781,0,1,0-.7-1.4l-3.557,1.779V20a.781.781,0,1,0-1.563,0v2.8l-1.01-1.01a.781.781,0,0,0-1.1,1.1l2.115,2.115v5.1a4.983,4.983,0,0,1-2.734.823,5.269,5.269,0,0,1-5.313-5.078A5.279,5.279,0,0,1,25.088,20.883Zm-19.219,0a.786.786,0,0,0,.616-.918,3.906,3.906,0,0,1,7.812,0,.787.787,0,0,0,.616.918,5.279,5.279,0,0,1,4.306,4.976,5.269,5.269,0,0,1-5.313,5.078,4.983,4.983,0,0,1-2.734-.823V29.7l2.115-2.115a.781.781,0,0,0-1.1-1.1l-1.01,1.01V22.344a.781.781,0,1,0-1.562,0v3.423L6.053,23.989a.781.781,0,1,0-.7,1.4l4.256,2.128v2.6a4.983,4.983,0,0,1-2.734.823,5.269,5.269,0,0,1-5.313-5.078,5.279,5.279,0,0,1,4.306-4.976Z" fill="#008583"/><circle cx="1" cy="1" r="1" transform="translate(29.176 6.808)" fill="#008583"/></g></svg>