<svg xmlns="http://www.w3.org/2000/svg" width="34.958" height="40" viewBox="0 0 34.958 40"><g transform="translate(-36.713 -11)"><g transform="translate(36.713 11)"><g transform="translate(0)"><path d="M72,6.907A69.106,69.106,0,0,1,55.6.117a.88.88,0,0,0-.877,0,67.213,67.213,0,0,1-16.407,6.79.845.845,0,0,0-.634.812v8.6a24.461,24.461,0,0,0,7.7,18.071C49.158,38,53.562,40,55.16,40s6-2,9.782-5.613a24.46,24.46,0,0,0,7.7-18.071v-8.6A.845.845,0,0,0,72,6.907Zm-1.09,9.409a22.829,22.829,0,0,1-7.179,16.869c-3.717,3.554-7.692,5.132-8.575,5.132s-4.858-1.578-8.576-5.132a22.829,22.829,0,0,1-7.179-16.869V8.357A68.821,68.821,0,0,0,55.16,1.816,71,71,0,0,0,70.915,8.357Z" transform="translate(-37.681 0)" fill="#008583"/><path d="M87.5,99.553a.963.963,0,0,0-1.249-.543c-1.72.678-3.485,1.3-5.247,1.854a.963.963,0,0,0-.675.919V105.5a.963.963,0,1,0,1.926,0v-3.014c1.58-.511,3.159-1.077,4.7-1.685A.962.962,0,0,0,87.5,99.553Z" transform="translate(-76.515 -91.432)" fill="#008583"/><path d="M171.167,88.136a.963.963,0,0,0,.386-.081l.018-.008a.963.963,0,1,0-.777-1.762l-.016.007a.962.962,0,0,0,.389,1.843Z" transform="translate(-159.657 -79.513)" fill="#008583"/><path d="M310.571,345.685a.963.963,0,0,0-1.333.279,23.432,23.432,0,0,1-2.767,3.456,24.592,24.592,0,0,1-2.762,2.457.963.963,0,1,0,1.168,1.531,26.538,26.538,0,0,0,2.978-2.65,25.336,25.336,0,0,0,2.995-3.741A.963.963,0,0,0,310.571,345.685Z" transform="translate(-282.669 -320.409)" fill="#008583"/><path d="M277.1,432.1l-.055.033a.963.963,0,1,0,.965,1.666l.064-.037a.963.963,0,1,0-.973-1.661Z" transform="translate(-257.557 -399.121)" fill="#008583"/><path d="M127.25,161.7a2.295,2.295,0,0,0-3.67,0,3.609,3.609,0,0,0,0,4.428l4.712,5.685a2.3,2.3,0,0,0,3.67,0l9.837-11.868a3.609,3.609,0,0,0,0-4.427,2.3,2.3,0,0,0-3.67,0l-8,9.654Zm12.008-4.821a.884.884,0,0,1,1.413,0,1.389,1.389,0,0,1,0,1.7l-9.837,11.868a.884.884,0,0,1-1.413,0l-4.712-5.685a1.389,1.389,0,0,1,0-1.7.884.884,0,0,1,1.413,0l3.441,4.152a.706.706,0,0,0,1.129,0Z" transform="translate(-115.21 -143.663)" fill="#008583"/></g></g></g></svg>