<svg xmlns="http://www.w3.org/2000/svg" width="40" height="40" viewBox="0 0 40 40"><path d="M10.321,31.5H7.083A6.956,6.956,0,0,0,0,38.3V63.969a2.981,2.981,0,0,0,3.036,2.916H14.369A2.981,2.981,0,0,0,17.4,63.969V38.3A6.956,6.956,0,0,0,10.321,31.5Zm-3.9,1.2a5.924,5.924,0,0,1-5.167,4.964A5.767,5.767,0,0,1,6.419,32.7ZM1.214,47.949a6.915,6.915,0,0,1,.674-2.982l1.6,2.182a1.685,1.685,0,0,0-.247.878v8.555a1.684,1.684,0,0,0,.174.745L1.559,59.859a1.694,1.694,0,0,1-.345-1.023ZM5.059,58.331h7.286a1.87,1.87,0,0,0,.776-.167l1.727,2.361a1.884,1.884,0,0,1-.479.062H3.036a1.884,1.884,0,0,1-.479-.062l1.727-2.361A1.87,1.87,0,0,0,5.059,58.331Zm-.607-1.75V48.026a.6.6,0,0,1,.607-.583h7.286a.6.6,0,0,1,.607.583v8.555a.6.6,0,0,1-.607.583H5.059A.6.6,0,0,1,4.452,56.581ZM12.99,46.39a1.881,1.881,0,0,0-.645-.114H5.059a1.88,1.88,0,0,0-.645.114l-1.86-2.543a7.657,7.657,0,0,1,12.3,0Zm3.2,17.579a1.789,1.789,0,0,1-1.821,1.75H3.036a1.789,1.789,0,0,1-1.821-1.75v-2.8a3.1,3.1,0,0,0,1.821.585H14.369a3.1,3.1,0,0,0,1.821-.585Zm0-5.133a1.693,1.693,0,0,1-.345,1.022l-1.853-2.533a1.683,1.683,0,0,0,.174-.745V48.026a1.684,1.684,0,0,0-.247-.878l1.6-2.182a6.914,6.914,0,0,1,.674,2.982Zm0-15.143A8.78,8.78,0,0,0,8.7,39.588a8.78,8.78,0,0,0-7.488,4.105V38.846a7.113,7.113,0,0,0,6.432-6.179H10a6.838,6.838,0,0,0,2,4.1,7.339,7.339,0,0,0,4.192,2.055ZM11.234,32.735a5.759,5.759,0,0,1,4.913,4.893A5.97,5.97,0,0,1,11.234,32.735Zm0,0" transform="translate(0 -28.95)" fill="#008583"/><path d="M307.321,31.5h-3.238A6.956,6.956,0,0,0,297,38.3V63.969a2.981,2.981,0,0,0,3.036,2.916h11.333a2.981,2.981,0,0,0,3.036-2.916V38.3A6.956,6.956,0,0,0,307.321,31.5Zm5.825,6.128a5.97,5.97,0,0,1-4.913-4.893A5.759,5.759,0,0,1,313.147,37.628ZM303.419,32.7a5.924,5.924,0,0,1-5.167,4.964A5.767,5.767,0,0,1,303.419,32.7Zm-5.205,15.245a6.914,6.914,0,0,1,.674-2.982l1.6,2.182a1.684,1.684,0,0,0-.247.878v8.555a1.683,1.683,0,0,0,.174.745l-1.853,2.533a1.694,1.694,0,0,1-.345-1.023Zm3.845,10.382h7.286a1.87,1.87,0,0,0,.776-.167l1.727,2.361a1.884,1.884,0,0,1-.479.062H300.036a1.884,1.884,0,0,1-.479-.062l1.727-2.361A1.87,1.87,0,0,0,302.059,58.331Zm-.607-1.75V48.026a.6.6,0,0,1,.607-.583h7.286a.6.6,0,0,1,.607.583v8.555a.6.6,0,0,1-.607.583h-7.286A.6.6,0,0,1,301.452,56.581ZM309.99,46.39a1.881,1.881,0,0,0-.645-.114h-7.286a1.881,1.881,0,0,0-.645.114l-1.86-2.543a7.657,7.657,0,0,1,12.3,0Zm3.2,17.579a1.789,1.789,0,0,1-1.821,1.75H300.036a1.789,1.789,0,0,1-1.821-1.75v-2.8a3.1,3.1,0,0,0,1.821.585h11.333a3.1,3.1,0,0,0,1.821-.585Zm0-5.133a1.693,1.693,0,0,1-.345,1.022l-1.853-2.533a1.683,1.683,0,0,0,.174-.745V48.026a1.685,1.685,0,0,0-.247-.878l1.6-2.182a6.914,6.914,0,0,1,.674,2.982Zm0-15.143a8.881,8.881,0,0,0-14.976,0V38.846a7.113,7.113,0,0,0,6.432-6.179H307a6.837,6.837,0,0,0,2,4.1,7.339,7.339,0,0,0,4.192,2.055Zm0,0" transform="translate(-274.404 -28.95)" fill="#008583"/><path d="M249,497h1.214v1.214H249Zm0,0" transform="translate(-229.568 -458.214)" fill="#008583"/><path d="M249,30h1.214V65.143H249Zm0,0" transform="translate(-229.568 -27.571)" fill="#008583"/><path d="M249,0h1.214V1.214H249Zm0,0" transform="translate(-229.568)" fill="#008583"/><path d="M29.5,441.5h1.214v1.214H29.5Zm0,0" transform="translate(-27.112 -407.207)" fill="#008583"/><path d="M170.5,441.5h1.214v1.214H170.5Zm0,0" transform="translate(-157.194 -407.207)" fill="#008583"/><path d="M328.5,441.5h1.214v1.214H328.5Zm0,0" transform="translate(-302.864 -407.207)" fill="#008583"/><path d="M469.5,441.5h1.214v1.214H469.5Zm0,0" transform="translate(-432.94 -407.207)" fill="#008583"/></svg>